<svg width="24" height="24" viewBox="0 0 24 24" fill="none" xmlns="http://www.w3.org/2000/svg">
<path d="M19.1566 5.42479C17.8649 4.82074 16.4797 4.37571 15.0314 4.12082C15.005 4.1159 14.9787 4.12819 14.9651 4.15278C14.7869 4.47569 14.5896 4.89696 14.4514 5.22807C12.8937 4.9904 11.3439 4.9904 9.81814 5.22807C9.67993 4.8896 9.47543 4.47569 9.29649 4.15278C9.2829 4.12901 9.25655 4.11672 9.23018 4.12082C7.78268 4.37489 6.3975 4.81993 5.10497 5.42479C5.09378 5.4297 5.08419 5.43791 5.07782 5.44855C2.45042 9.44896 1.73066 13.351 2.08375 17.2047C2.08535 17.2236 2.09573 17.2416 2.11011 17.2531C3.8436 18.5505 5.52278 19.3381 7.17077 19.8602C7.19714 19.8684 7.22509 19.8586 7.24187 19.8364C7.63171 19.2939 7.97921 18.7218 8.27716 18.1202C8.29474 18.085 8.27796 18.0432 8.24202 18.0292C7.69082 17.8161 7.16597 17.5563 6.66111 17.2613C6.62117 17.2375 6.61797 17.1793 6.65471 17.1514C6.76095 17.0703 6.86723 16.9859 6.96867 16.9007C6.98703 16.8851 7.0126 16.8818 7.03418 16.8916C10.351 18.4349 13.9417 18.4349 17.2194 16.8916C17.241 16.881 17.2665 16.8843 17.2857 16.8998C17.3872 16.9851 17.4934 17.0703 17.6005 17.1514C17.6372 17.1793 17.6348 17.2375 17.5949 17.2613C17.09 17.5621 16.5651 17.8161 16.0131 18.0284C15.9772 18.0424 15.9612 18.085 15.9788 18.1202C16.2831 18.721 16.6307 19.293 17.0133 19.8356C17.0293 19.8586 17.058 19.8684 17.0844 19.8602C18.7404 19.3381 20.4195 18.5505 22.153 17.2531C22.1682 17.2416 22.1778 17.2244 22.1794 17.2056C22.602 12.7503 21.4716 8.88017 19.1829 5.44937C19.1773 5.43791 19.1678 5.4297 19.1566 5.42479ZM8.77246 14.8582C7.77389 14.8582 6.95109 13.9239 6.95109 12.7765C6.95109 11.6291 7.75793 10.6947 8.77246 10.6947C9.79496 10.6947 10.6098 11.6373 10.5938 12.7765C10.5938 13.9239 9.78697 14.8582 8.77246 14.8582ZM15.5067 14.8582C14.5081 14.8582 13.6853 13.9239 13.6853 12.7765C13.6853 11.6291 14.4921 10.6947 15.5067 10.6947C16.5292 10.6947 17.344 11.6373 17.3281 12.7765C17.3281 13.9239 16.5292 14.8582 15.5067 14.8582Z" fill="black"/>
</svg>
