<svg width="24" height="24" viewBox="0 0 24 24" fill="none" xmlns="http://www.w3.org/2000/svg">
<path fill-rule="evenodd" clip-rule="evenodd" d="M12.0001 3.99988C9.82738 3.99988 9.55494 4.00903 8.70165 4.04803C7.85007 4.08691 7.26851 4.22213 6.75968 4.41988C6.23357 4.62432 5.7874 4.89788 5.34264 5.34264C4.89788 5.7874 4.62432 6.23359 4.41992 6.75967C4.22207 7.26857 4.08685 7.85012 4.04803 8.70166C4.00907 9.55495 3.99988 9.82736 3.99988 12.0001C3.99988 14.1729 4.00907 14.4453 4.04803 15.2986C4.08685 16.1501 4.22207 16.7317 4.41992 17.2406C4.62432 17.7667 4.89788 18.2128 5.34264 18.6576C5.7874 19.1024 6.23357 19.3759 6.75968 19.5804C7.26851 19.7781 7.85007 19.9133 8.70165 19.9522C9.55494 19.9911 9.82738 20.0004 12.0001 20.0004C14.1729 20.0004 14.4453 19.9911 15.2986 19.9522C16.1502 19.9133 16.7317 19.7781 17.2406 19.5804C17.7667 19.3759 18.2128 19.1024 18.6576 18.6576C19.1024 18.2128 19.3759 17.7667 19.5804 17.2406C19.7782 16.7317 19.9134 16.1501 19.9523 15.2986C19.9912 14.4453 20.0004 14.1729 20.0004 12.0001C20.0004 9.82736 19.9912 9.55495 19.9523 8.70166C19.9134 7.85012 19.7782 7.26857 19.5804 6.75967C19.3759 6.23359 19.1024 5.7874 18.6576 5.34264C18.2128 4.89788 17.7667 4.62432 17.2406 4.41988C16.7317 4.22213 16.1502 4.08691 15.2986 4.04803C14.4453 4.00903 14.1729 3.99988 12.0001 3.99988ZM12.0001 5.44135C14.1363 5.44135 14.3893 5.44949 15.2329 5.48796C16.0129 5.52355 16.4365 5.65393 16.7184 5.76345C17.0919 5.90859 17.3584 6.08196 17.6383 6.3619C17.9183 6.64188 18.0917 6.90836 18.2368 7.28179C18.3463 7.56369 18.4767 7.98734 18.5123 8.76731C18.5508 9.61096 18.5589 9.86393 18.5589 12.0001C18.5589 14.1363 18.5508 14.3893 18.5123 15.2329C18.4767 16.0129 18.3463 16.4366 18.2368 16.7185C18.0917 17.0919 17.9183 17.3584 17.6383 17.6383C17.3584 17.9183 17.0919 18.0917 16.7184 18.2368C16.4365 18.3463 16.0129 18.4767 15.2329 18.5122C14.3894 18.5508 14.1365 18.5589 12.0001 18.5589C9.86378 18.5589 9.61084 18.5508 8.76733 18.5122C7.98736 18.4767 7.56371 18.3463 7.2818 18.2368C6.90837 18.0917 6.64186 17.9183 6.36191 17.6383C6.08201 17.3584 5.90863 17.0919 5.76349 16.7185C5.65394 16.4366 5.52359 16.0129 5.48796 15.2329C5.44953 14.3893 5.44136 14.1363 5.44136 12.0001C5.44136 9.86393 5.44953 9.61096 5.48796 8.76731C5.52359 7.98734 5.65394 7.56369 5.76349 7.28179C5.90863 6.90836 6.08201 6.64188 6.36191 6.3619C6.64186 6.08196 6.90837 5.90859 7.2818 5.76345C7.56371 5.65393 7.98736 5.52355 8.76733 5.48796C9.61098 5.44949 9.86396 5.44135 12.0001 5.44135ZM12.0001 14.5967C10.5661 14.5967 9.40352 13.4342 9.40352 12.0001C9.40352 10.5661 10.5661 9.40355 12.0001 9.40355C13.4342 9.40355 14.5967 10.5661 14.5967 12.0001C14.5967 13.4342 13.4342 14.5967 12.0001 14.5967ZM12.0001 8C9.79093 8 8 9.79095 8 12.0001C8 14.2094 9.79093 16.0002 12.0001 16.0002C14.2093 16.0002 16.0002 14.2094 16.0002 12.0001C16.0002 9.79095 14.2093 8 12.0001 8ZM16.4003 8.80002C17.063 8.80002 17.6003 8.26271 17.6003 7.59999C17.6003 6.93722 17.063 6.39995 16.4003 6.39995C15.7375 6.39995 15.2002 6.93722 15.2002 7.59999C15.2002 8.26271 15.7375 8.80002 16.4003 8.80002Z" fill="black"/>
</svg>
