<svg width="24" height="24" viewBox="0 0 24 24" fill="none" xmlns="http://www.w3.org/2000/svg">
<path fill-rule="evenodd" clip-rule="evenodd" d="M22.4456 5.19383C23.1352 5.88421 23.3599 7.45193 23.3599 7.45193C23.3599 7.45193 23.5896 9.29296 23.5896 11.134V12.8599C23.5896 14.7009 23.3599 16.5419 23.3599 16.5419C23.3599 16.5419 23.1352 18.1096 22.4456 18.8C21.6571 19.6169 20.7827 19.701 20.2887 19.7485C20.2347 19.7537 20.1853 19.7585 20.141 19.7637C16.9225 19.9938 12.0896 20.001 12.0896 20.001C12.0896 20.001 6.10971 19.947 4.26969 19.7725C4.1822 19.7562 4.07609 19.7436 3.95591 19.7293C3.37296 19.66 2.459 19.5513 1.73362 18.8C1.04402 18.1096 0.819611 16.5419 0.819611 16.5419C0.819611 16.5419 0.5896 14.7009 0.5896 12.8599V11.134C0.5896 9.29296 0.819611 7.45193 0.819611 7.45193C0.819611 7.45193 1.04402 5.88421 1.73362 5.19383C2.52243 4.37692 3.39663 4.29285 3.89056 4.24536C3.94448 4.24017 3.99387 4.23542 4.03812 4.2302C7.25675 4.00006 12.0846 4.00006 12.0846 4.00006H12.0946C12.0946 4.00006 16.9225 4.00006 20.141 4.2302C20.1853 4.23542 20.2347 4.24017 20.2886 4.24536C20.7826 4.29286 21.6571 4.37694 22.4456 5.19383ZM9.5896 9.00042L9.59056 15.589L15.237 12.3062L9.5896 9.00042Z" fill="black"/>
</svg>
