<svg
  width="19"
  height="19"
  viewBox="0 0 19 19"
  fill="none"
  xmlns="http://www.w3.org/2000/svg"
>
<path
    fill-rule="evenodd"
    clip-rule="evenodd"
    d="M9.38462 11.1668V7.67597H18.1679C18.2993 8.26715 18.4025 8.8208 18.4025 9.59966C18.4025 14.9578 14.8085 18.7677 9.39401 18.7677C4.21413 18.7677 0.0101738 14.5637 0.0101738 9.38383C0.0101738 4.20396 4.21413 0 9.39401 0C11.9276 0 14.0484 0.929 15.6718 2.44918L13.0068 5.03912C12.3311 4.40102 11.1488 3.65031 9.39401 3.65031C6.28796 3.65031 3.75432 6.23086 3.75432 9.39322C3.75432 12.5556 6.28796 15.1361 9.39401 15.1361C12.988 15.1361 14.3111 12.6494 14.5551 11.1761H9.38462V11.1668Z"
    fill="white"
  />
</svg>
