<svg width="199" height="83" viewBox="0 0 199 83" fill="none" xmlns="http://www.w3.org/2000/svg">
<path d="M183.751 71.1421L183.751 72.4102L183.125 72.417L183.125 71.3096C183.125 71.1227 183.098 70.9644 183.043 70.8345C182.986 70.7023 182.906 70.6021 182.801 70.5337C182.694 70.4653 182.565 70.4312 182.415 70.4312C182.248 70.4312 182.113 70.4631 182.008 70.5269C181.903 70.5907 181.827 70.6886 181.779 70.8208C181.731 70.9507 181.707 71.117 181.707 71.3198L181.707 72.1504L186 72.1504L186 73.0083L181.023 73.0083L181.023 71.3198C181.023 71.0464 181.05 70.8026 181.102 70.5884C181.154 70.3719 181.236 70.1885 181.348 70.0381C181.458 69.8854 181.597 69.7703 181.765 69.6929C181.934 69.6131 182.134 69.5732 182.367 69.5732C182.572 69.5732 182.76 69.6222 182.931 69.7202C183.099 69.8182 183.237 69.9629 183.344 70.1543C183.451 70.3457 183.515 70.5838 183.536 70.8687L183.751 71.1421ZM186 71.1797L186 72.6802L185.32 72.2939L185.32 71.1797C185.32 70.986 185.288 70.8242 185.224 70.6943C185.158 70.5645 185.068 70.4676 184.954 70.4038C184.838 70.3377 184.702 70.3047 184.547 70.3047C184.386 70.3047 184.245 70.3332 184.127 70.3901C184.006 70.4471 183.914 70.5371 183.85 70.6602C183.784 70.7832 183.751 70.9438 183.751 71.1421L183.751 72.106L183.125 72.0991L183.125 70.8447L183.361 70.6499C183.37 70.3765 183.431 70.152 183.542 69.9766C183.654 69.7988 183.799 69.6667 183.977 69.5801C184.154 69.4935 184.346 69.4502 184.551 69.4502C184.868 69.4502 185.133 69.5197 185.347 69.6587C185.561 69.7954 185.724 69.9925 185.836 70.25C185.945 70.5075 186 70.8174 186 71.1797ZM185.32 65.3281L186 65.3281L186 67.9702L185.32 67.9702L185.32 65.3281ZM181.023 67.7275L186 67.7275L186 68.5854L181.023 68.5854L181.023 67.7275ZM183.102 65.6733L183.771 65.6733L183.771 67.9702L183.102 67.9702L183.102 65.6733ZM181.023 65.3452L181.707 65.3452L181.707 67.9702L181.023 67.9702L181.023 65.3452ZM181.023 62.5117L186 62.5117L186 63.3628L181.023 63.3628L181.023 62.5117ZM181.023 60.9497L181.707 60.9497L181.707 64.9111L181.023 64.9111L181.023 60.9497ZM181.687 58.6836L186 60.1704L186 61.0693L181.023 59.1963L181.023 58.6221L181.687 58.6836ZM186 57.4395L181.687 58.9297L181.023 58.9946L181.023 58.417L186 56.5371L186 57.4395ZM184.154 57.5112L184.834 57.5112L184.834 60.2183L184.154 60.2183L184.154 57.5112Z" fill="white"/>
<g clip-path="url(#clip0_28_80)">
<path d="M86.2537 41.8744V73.2678H67.8213V41.8744H86.2537Z" fill="white"/>
<path d="M90.5013 41.8744H106.433L120.012 53.27L119.987 41.8744H136.673V73.2678H120.741L107.113 61.9794L107.191 73.2678H90.5054V41.8744H90.5013Z" fill="white"/>
<path d="M186.659 50.3572H173.002V73.2678H154.569V50.3572H140.912V41.8744H186.659V50.3572Z" fill="white"/>
<path d="M0.00823975 46.4474H4.58542V41.9691H0V46.4433H0.00823975V46.4474Z" fill="white"/>
<path d="M47.0573 41.8744L37.0007 55.3958H36.5145L31.3029 48.392L31.2534 48.3714L26.5939 42.1051H26.462L26.4579 41.8785L17.9298 41.9444V46.4227H13.4556V41.9403V41.8744H8.97728V46.4557H8.95668H4.58549V50.9216H0.00831604V50.9299V59.8824H8.96492V64.3483H4.53194V64.3442H0.0536346V73.3008H4.53194V68.8225H8.96904V73.3049H17.9215V73.2884H17.9092V68.8225H22.3875V73.2719H26.8946L26.841 61.9958L33.0827 71.4715H40.4284L46.67 61.9958L46.6164 73.2719H63.3019V41.8785H47.0573V41.8744ZM4.60609 55.3958V50.9175H8.97728V55.3958H4.60609ZM13.4556 68.8183H8.97728H9.01848V64.34H8.97728H13.4556V68.8183ZM22.3875 55.3917H17.9092V50.9134H22.3875V55.3917Z" fill="white"/>
<path d="M93.4758 0C77.0252 0 63.6891 7.30865 63.6891 16.3188C63.6891 25.3331 77.0252 32.6376 93.4758 32.6376C109.926 32.6376 123.262 25.329 123.262 16.3188C123.258 7.30865 109.922 0 93.4758 0ZM93.4758 32.2256C77.639 32.2256 64.8056 25.1065 64.8056 16.3229C64.8056 7.53937 77.6431 0.420227 93.4758 0.420227C109.308 0.420227 122.146 7.53937 122.146 16.3229C122.146 25.1024 109.308 32.2256 93.4758 32.2256Z" fill="white"/>
<path d="M102.301 12.2649L102.029 8.70529H89.4012L88.9728 21.8683H88.7956L84.3832 8.70529H75.5997L79.4188 10.4604H77.6308L69.6918 23.2649H75.4637L76.642 20.9413H83.1226L83.654 23.2649H94.481V17.8803H99.8451L99.6721 14.6791H94.481V12.269H102.301V12.2649ZM77.9933 18.284L80.9061 12.4915H81.1945L82.5128 18.284H77.9933Z" fill="white"/>
<path d="M116.605 19.5941H109.848L108.682 10.4604H107.014L111.113 8.70117H103.116L104.258 23.2649H117.474L116.605 19.5941Z" fill="white"/>
<path d="M93.4758 1.51199C80.4446 1.51199 69.8772 8.14087 69.8772 16.3229C69.8772 17.5713 70.1244 18.7825 70.5858 19.9361L71.7146 18.1151C71.5993 17.5301 71.5416 16.9368 71.5416 16.3312C71.5416 9.9083 78.1416 4.48654 87.1971 2.73972V4.31763H87.8274V2.62436C88.911 2.43896 90.0275 2.30301 91.1728 2.22473V5.52887H91.8031V2.18765C92.3552 2.16293 92.9114 2.14645 93.4758 2.14645C94.0402 2.14645 94.5964 2.15881 95.1485 2.18765V5.52887H95.7788V2.22473C96.92 2.30301 98.0365 2.43484 99.1242 2.62436V4.31763H99.7545V2.73972C108.806 4.48654 115.41 9.9083 115.41 16.3312C115.41 17.1346 115.303 17.9214 115.105 18.6919H116.774C116.971 17.9214 117.074 17.1304 117.074 16.3229C117.07 8.14087 106.507 1.51199 93.4758 1.51199Z" fill="white"/>
<path d="M93.4758 30.5118C86.5297 30.5118 80.3334 28.423 76.3165 25.1601H74.5409C78.842 28.7814 85.7222 31.1298 93.4758 31.1298C101.242 31.1298 108.13 28.7773 112.431 25.1436H110.656C106.635 28.4148 100.434 30.5118 93.4758 30.5118Z" fill="white"/>
<path d="M114.541 23.8664C114.821 23.8664 115.068 23.9694 115.262 24.1631C115.451 24.3567 115.546 24.5998 115.546 24.8882C115.546 25.1477 115.439 25.399 115.249 25.5803C115.052 25.7698 114.796 25.8769 114.537 25.8769C114.273 25.8769 114.017 25.7657 113.824 25.5721C113.634 25.3825 113.54 25.1353 113.54 24.8676C113.54 24.6039 113.647 24.3443 113.84 24.1466C114.03 23.9612 114.269 23.8664 114.541 23.8664ZM114.537 23.6687C114.104 23.6687 113.729 23.8829 113.515 24.2455C113.395 24.4473 113.338 24.6574 113.338 24.8717C113.338 25.1848 113.457 25.4814 113.68 25.7121C113.91 25.947 114.211 26.0788 114.532 26.0788C114.846 26.0788 115.15 25.9552 115.385 25.7286C115.612 25.5061 115.74 25.2054 115.74 24.8758C115.74 24.5544 115.62 24.2537 115.398 24.0312C115.175 23.7964 114.87 23.6687 114.537 23.6687ZM114.042 24.1795V25.5185H114.368V24.9664H114.528L114.784 25.5144H115.146L114.846 24.917C115.027 24.8717 115.138 24.7398 115.138 24.5627C115.138 24.3072 114.949 24.1754 114.565 24.1754H114.042V24.1795ZM114.364 24.3855H114.508C114.706 24.3855 114.8 24.4473 114.8 24.5833C114.8 24.7151 114.71 24.7728 114.524 24.7728H114.364V24.3855Z" fill="white"/>
</g>
<defs>
<clipPath id="clip0_28_80">
<rect width="186.659" height="73.3008" fill="white"/>
</clipPath>
</defs>
</svg>
