<svg width="187" height="74" viewBox="0 0 187 74" fill="none" xmlns="http://www.w3.org/2000/svg">
<g clip-path="url(#clip0_4_2389)">
<path d="M86.2536 41.8745V73.2679H67.8213V41.8745H86.2536Z" fill="white"/>
<path d="M90.5012 41.8745H106.433L120.012 53.2701L119.987 41.8745H136.673V73.2679H120.741L107.113 61.9795L107.191 73.2679H90.5053V41.8745H90.5012Z" fill="white"/>
<path d="M186.659 50.3573H173.002V73.2679H154.569V50.3573H140.912V41.8745H186.659V50.3573Z" fill="white"/>
<path d="M0.00823975 46.4475H4.58542V41.9692H0V46.4434H0.00823975V46.4475Z" fill="white"/>
<path d="M47.0572 41.8745L37.0006 55.3959H36.5145L31.3029 48.3921L31.2534 48.3716L26.5938 42.1052H26.462L26.4579 41.8786L17.9297 41.9445V46.4229H13.4556V41.9404V41.8745H8.97726V46.4558H8.95666H4.58548V50.9218H0.00830078V50.93V59.8825H8.9649V64.3484H4.53192V64.3443H0.0536194V73.3009H4.53192V68.8226H8.96902V73.305H17.9215V73.2885H17.9091V68.8226H22.3874V73.2721H26.8946L26.841 61.996L33.0826 71.4717H40.4284L46.67 61.996L46.6164 73.2721H63.3019V41.8786H47.0572V41.8745ZM4.60608 55.3959V50.9176H8.97726V55.3959H4.60608ZM13.4556 68.8185H8.97726H9.01846V64.3402H8.97726H13.4556V68.8185ZM22.3874 55.3918H17.9091V50.9135H22.3874V55.3918Z" fill="white"/>
<path d="M93.4759 0C77.0252 0 63.6892 7.30865 63.6892 16.3188C63.6892 25.3331 77.0252 32.6376 93.4759 32.6376C109.927 32.6376 123.263 25.329 123.263 16.3188C123.258 7.30865 109.922 0 93.4759 0ZM93.4759 32.2256C77.6391 32.2256 64.8057 25.1065 64.8057 16.3229C64.8057 7.53937 77.6432 0.420227 93.4759 0.420227C109.309 0.420227 122.146 7.53937 122.146 16.3229C122.146 25.1024 109.309 32.2256 93.4759 32.2256Z" fill="white"/>
<path d="M102.301 12.2649L102.029 8.70532H89.4014L88.9729 21.8683H88.7957L84.3834 8.70532H75.5998L79.4189 10.4604H77.6309L69.6919 23.265H75.4638L76.6421 20.9413H83.1227L83.6541 23.265H94.4812V17.8803H99.8452L99.6722 14.6791H94.4812V12.269H102.301V12.2649ZM77.9934 18.284L80.9062 12.4915H81.1946L82.5129 18.284H77.9934Z" fill="white"/>
<path d="M116.605 19.5941H109.848L108.682 10.4604H107.014L111.113 8.70117H103.116L104.258 23.2649H117.474L116.605 19.5941Z" fill="white"/>
<path d="M93.4758 1.51196C80.4447 1.51196 69.8772 8.14084 69.8772 16.3229C69.8772 17.5712 70.1244 18.7825 70.5858 19.936L71.7147 18.1151C71.5993 17.53 71.5416 16.9368 71.5416 16.3311C71.5416 9.90827 78.1417 4.48651 87.1971 2.73969V4.3176H87.8275V2.62433C88.911 2.43893 90.0275 2.30298 91.1728 2.2247V5.52884H91.8032V2.18762C92.3552 2.1629 92.9114 2.14642 93.4758 2.14642C94.0403 2.14642 94.5964 2.15878 95.1485 2.18762V5.52884H95.7788V2.2247C96.9201 2.30298 98.0365 2.43481 99.1242 2.62433V4.3176H99.7545V2.73969C108.806 4.48651 115.41 9.90827 115.41 16.3311C115.41 17.1345 115.303 17.9214 115.105 18.6918H116.774C116.971 17.9214 117.074 17.1304 117.074 16.3229C117.07 8.14084 106.507 1.51196 93.4758 1.51196Z" fill="white"/>
<path d="M93.476 30.5117C86.5298 30.5117 80.3336 28.423 76.3167 25.16H74.541C78.8422 28.7814 85.7224 31.1297 93.476 31.1297C101.242 31.1297 108.13 28.7773 112.431 25.1436H110.656C106.635 28.4147 100.434 30.5117 93.476 30.5117Z" fill="white"/>
<path d="M114.541 23.8665C114.821 23.8665 115.068 23.9695 115.262 24.1631C115.451 24.3567 115.546 24.5998 115.546 24.8882C115.546 25.1477 115.439 25.399 115.249 25.5803C115.052 25.7698 114.796 25.877 114.537 25.877C114.273 25.877 114.018 25.7657 113.824 25.5721C113.635 25.3826 113.54 25.1354 113.54 24.8676C113.54 24.6039 113.647 24.3444 113.841 24.1466C114.03 23.9612 114.269 23.8665 114.541 23.8665ZM114.537 23.6687C114.104 23.6687 113.729 23.8829 113.515 24.2455C113.396 24.4474 113.338 24.6575 113.338 24.8717C113.338 25.1848 113.457 25.4814 113.68 25.7122C113.911 25.947 114.211 26.0788 114.533 26.0788C114.846 26.0788 115.151 25.9552 115.385 25.7286C115.612 25.5062 115.74 25.2054 115.74 24.8758C115.74 24.5545 115.62 24.2537 115.398 24.0313C115.175 23.7964 114.87 23.6687 114.537 23.6687ZM114.042 24.1796V25.5185H114.368V24.9665H114.529L114.784 25.5144H115.147L114.846 24.917C115.027 24.8717 115.138 24.7399 115.138 24.5627C115.138 24.3073 114.949 24.1754 114.566 24.1754H114.042V24.1796ZM114.364 24.3856H114.508C114.706 24.3856 114.8 24.4474 114.8 24.5833C114.8 24.7151 114.71 24.7728 114.524 24.7728H114.364V24.3856Z" fill="white"/>
</g>
<path d="M183.751 71.1421L183.751 72.4102L183.125 72.417L183.125 71.3096C183.125 71.1227 183.098 70.9644 183.043 70.8345C182.986 70.7023 182.906 70.6021 182.801 70.5337C182.694 70.4653 182.565 70.4312 182.415 70.4312C182.248 70.4312 182.113 70.4631 182.008 70.5269C181.903 70.5907 181.827 70.6886 181.779 70.8208C181.731 70.9507 181.707 71.117 181.707 71.3198L181.707 72.1504L186 72.1504L186 73.0083L181.023 73.0083L181.023 71.3198C181.023 71.0464 181.05 70.8026 181.102 70.5884C181.154 70.3719 181.236 70.1885 181.348 70.0381C181.458 69.8854 181.597 69.7703 181.765 69.6929C181.934 69.6131 182.134 69.5732 182.367 69.5732C182.572 69.5732 182.76 69.6222 182.931 69.7202C183.099 69.8182 183.237 69.9629 183.344 70.1543C183.451 70.3457 183.515 70.5838 183.536 70.8687L183.751 71.1421ZM186 71.1797L186 72.6802L185.32 72.2939L185.32 71.1797C185.32 70.986 185.288 70.8242 185.224 70.6943C185.158 70.5645 185.068 70.4676 184.954 70.4038C184.838 70.3377 184.702 70.3047 184.547 70.3047C184.386 70.3047 184.245 70.3332 184.127 70.3901C184.006 70.4471 183.914 70.5371 183.85 70.6602C183.784 70.7832 183.751 70.9438 183.751 71.1421L183.751 72.106L183.125 72.0991L183.125 70.8447L183.361 70.6499C183.37 70.3765 183.431 70.152 183.542 69.9766C183.654 69.7988 183.799 69.6667 183.977 69.5801C184.154 69.4935 184.346 69.4502 184.551 69.4502C184.868 69.4502 185.133 69.5197 185.347 69.6587C185.561 69.7954 185.724 69.9925 185.836 70.25C185.945 70.5075 186 70.8174 186 71.1797Z" fill="white"/>
<path d="M185.32 65.3281L186 65.3281L186 67.9702L185.32 67.9702L185.32 65.3281ZM181.023 67.7275L186 67.7275L186 68.5854L181.023 68.5854L181.023 67.7275ZM183.102 65.6733L183.771 65.6733L183.771 67.9702L183.102 67.9702L183.102 65.6733ZM181.023 65.3452L181.707 65.3452L181.707 67.9702L181.023 67.9702L181.023 65.3452Z" fill="white"/>
<path d="M181.023 62.5117L186 62.5117L186 63.3628L181.023 63.3628L181.023 62.5117ZM181.023 60.9497L181.707 60.9497L181.707 64.9111L181.023 64.9111L181.023 60.9497Z" fill="white"/>
<path d="M181.687 58.6836L186 60.1704L186 61.0693L181.023 59.1963L181.023 58.6221L181.687 58.6836ZM186 57.4395L181.687 58.9297L181.023 58.9946L181.023 58.417L186 56.5371L186 57.4395ZM184.154 57.5112L184.834 57.5112L184.834 60.2183L184.154 60.2183L184.154 57.5112Z" fill="white"/>
<defs>
<clipPath id="clip0_4_2389">
<rect width="186.659" height="73.3008" fill="white"/>
</clipPath>
</defs>
</svg>
