<svg
  width="31"
  height="24"
  viewBox="0 0 31 24"
  fill="none"
  xmlns="http://www.w3.org/2000/svg"
>
<path
    d="M25.7349 2.13724C23.7973 1.23117 21.7195 0.563624 19.5471 0.181291C19.5075 0.173912 19.468 0.192353 19.4476 0.229234C19.1804 0.713603 18.8844 1.3455 18.6771 1.84217C16.3405 1.48566 14.0159 1.48566 11.7272 1.84217C11.5199 1.33446 11.2131 0.713603 10.9447 0.229234C10.9243 0.193583 10.8848 0.175143 10.8453 0.181291C8.67402 0.562403 6.59624 1.22995 4.65745 2.13724C4.64067 2.14461 4.62628 2.15692 4.61673 2.17289C0.67563 8.1735 -0.404004 14.0266 0.125628 19.8072C0.128025 19.8355 0.143602 19.8625 0.165171 19.8797C2.7654 21.8258 5.28416 23.0072 7.75615 23.7903C7.79572 23.8027 7.83763 23.7879 7.86281 23.7547C8.44756 22.9409 8.96881 22.0828 9.41574 21.1804C9.44211 21.1275 9.41694 21.0648 9.36303 21.0439C8.53623 20.7243 7.74896 20.3346 6.99166 19.892C6.93176 19.8564 6.92696 19.769 6.98207 19.7272C7.14143 19.6055 7.30084 19.4789 7.45301 19.351C7.48054 19.3277 7.51891 19.3228 7.55127 19.3375C12.5264 21.6525 17.9126 21.6525 22.8291 19.3375C22.8614 19.3215 22.8998 19.3265 22.9285 19.3498C23.0808 19.4777 23.2401 19.6055 23.4007 19.7272C23.4558 19.769 23.4522 19.8564 23.3923 19.892C22.635 20.3432 21.8477 20.7243 21.0197 21.0427C20.9658 21.0636 20.9418 21.1275 20.9682 21.1804C21.4247 22.0815 21.946 22.9396 22.5199 23.7535C22.5439 23.7879 22.587 23.8027 22.6266 23.7903C25.1106 23.0072 27.6293 21.8258 30.2295 19.8797C30.2523 19.8625 30.2667 19.8367 30.2691 19.8084C30.903 13.1254 29.2074 7.32032 25.7744 2.17411C25.766 2.15692 25.7517 2.14461 25.7349 2.13724ZM10.1587 16.2874C8.66083 16.2874 7.42663 14.886 7.42663 13.1648C7.42663 11.4437 8.6369 10.0422 10.1587 10.0422C11.6924 10.0422 12.9147 11.456 12.8907 13.1648C12.8907 14.886 11.6805 16.2874 10.1587 16.2874ZM20.26 16.2874C18.7622 16.2874 17.528 14.886 17.528 13.1648C17.528 11.4437 18.7382 10.0422 20.26 10.0422C21.7938 10.0422 23.016 11.456 22.9921 13.1648C22.9921 14.886 21.7938 16.2874 20.26 16.2874Z"
    fill="white"
  />
</svg>
